<svg width="18" height="19" viewBox="0 0 18 19" fill="none" xmlns="http://www.w3.org/2000/svg">
<g clip-path="url(#clip0_17_24)">
<path d="M14.3901 18.1725C14.3901 16.0388 12.4218 14.953 10.5048 14.0809C8.5941 13.2126 7.9839 12.4811 7.9839 10.9136C7.9839 9.97404 8.5671 10.2799 8.8227 8.55665C8.9307 7.84225 9.4455 8.54525 9.5445 6.91409C9.5445 6.2643 9.2628 6.1028 9.2628 6.1028C9.2628 6.1028 9.4059 5.14045 9.4617 4.39945C9.5193 3.6233 9.1035 1.96745 7.3908 1.4592C7.092 1.13525 6.8895 0.621296 7.8111 0.106396C5.7951 0.0075958 5.3262 1.121 4.2525 1.9399C3.339 2.6581 3.0924 3.79525 3.1365 4.4004C3.195 5.1414 3.3372 6.10375 3.3372 6.10375C3.3372 6.10375 3.0546 6.26524 3.0546 6.91504C3.1536 8.54714 3.6702 7.8432 3.7773 8.5576C4.0329 10.2809 4.617 9.975 4.617 10.9145C4.617 12.482 4.4262 13.014 2.5146 13.8823C0.5967 14.7535 0 16.15 0.0099 18.1725C0.0126 18.7777 0 19 0 19H14.4C14.4 19 14.3901 18.7777 14.3901 18.1725ZM14.4 9.53704L12.3309 7.25894L11.376 8.2669L13.5351 10.45L11.3769 12.6331L12.3318 13.641L14.4 11.3629L16.4682 13.641L17.4231 12.6331L15.2649 10.45L17.4222 8.2669L16.4673 7.25894L14.4 9.53704Z" fill="#242F9B"/>
</g>
<defs>
<clipPath id="clip0_17_24">
<rect width="18" height="19" fill="white"/>
</clipPath>
</defs>
</svg>
