<svg width="82" height="80" viewBox="0 0 82 80" fill="none" xmlns="http://www.w3.org/2000/svg">
<g filter="url(#filter0_d_5_312)">
<rect x="4" width="73.3564" height="72" rx="11" fill="#DBDFFD"/>
<path d="M17.4427 43.6364H18.5805L19.7822 46.5682H19.8334L21.0351 43.6364H22.1729V48H21.278V45.1598H21.2417L20.1125 47.9787H19.5031L18.3738 45.1491H18.3376V48H17.4427V43.6364ZM23.8492 48.0618C23.6404 48.0618 23.4543 48.0256 23.2909 47.9531C23.1276 47.8793 22.9983 47.7706 22.9031 47.6271C22.8094 47.4822 22.7625 47.3018 22.7625 47.0859C22.7625 46.9041 22.7959 46.7514 22.8627 46.6278C22.9294 46.5043 23.0203 46.4048 23.1354 46.3295C23.2504 46.2543 23.3811 46.1974 23.5274 46.1591C23.6752 46.1207 23.83 46.0938 23.9919 46.0781C24.1823 46.0582 24.3357 46.0398 24.4521 46.0227C24.5686 46.0043 24.6531 45.9773 24.7057 45.9418C24.7583 45.9062 24.7845 45.8537 24.7845 45.7841V45.7713C24.7845 45.6364 24.7419 45.532 24.6567 45.4581C24.5729 45.3842 24.4536 45.3473 24.2987 45.3473C24.1354 45.3473 24.0054 45.3835 23.9088 45.456C23.8122 45.527 23.7483 45.6165 23.7171 45.7244L22.8776 45.6562C22.9202 45.4574 23.004 45.2855 23.129 45.1406C23.254 44.9943 23.4152 44.8821 23.6127 44.804C23.8115 44.7244 24.0416 44.6847 24.303 44.6847C24.4848 44.6847 24.6588 44.706 24.825 44.7486C24.9926 44.7912 25.1411 44.8572 25.2703 44.9467C25.401 45.0362 25.504 45.1513 25.5793 45.2919C25.6546 45.4311 25.6922 45.598 25.6922 45.7926V48H24.8314V47.5462H24.8058C24.7533 47.6484 24.683 47.7386 24.5949 47.8168C24.5068 47.8935 24.401 47.9538 24.2774 47.9979C24.1539 48.0405 24.0111 48.0618 23.8492 48.0618ZM24.1091 47.4354C24.2426 47.4354 24.3605 47.4091 24.4628 47.3565C24.5651 47.3026 24.6453 47.2301 24.7036 47.1392C24.7618 47.0483 24.7909 46.9453 24.7909 46.8303V46.483C24.7625 46.5014 24.7235 46.5185 24.6737 46.5341C24.6254 46.5483 24.5708 46.5618 24.5097 46.5746C24.4486 46.5859 24.3875 46.5966 24.3264 46.6065C24.2654 46.6151 24.21 46.6229 24.1602 46.63C24.0537 46.6456 23.9607 46.6705 23.8811 46.7045C23.8016 46.7386 23.7398 46.7848 23.6958 46.843C23.6517 46.8999 23.6297 46.9709 23.6297 47.0561C23.6297 47.1797 23.6744 47.2741 23.7639 47.3395C23.8548 47.4034 23.9699 47.4354 24.1091 47.4354ZM26.3964 48V44.7273H27.2764V45.2983H27.3105C27.3701 45.0952 27.4703 44.9418 27.6109 44.8381C27.7515 44.733 27.9134 44.6804 28.0967 44.6804C28.1421 44.6804 28.1911 44.6832 28.2437 44.6889C28.2963 44.6946 28.3424 44.7024 28.3822 44.7124V45.5178C28.3396 45.505 28.2806 45.4936 28.2053 45.4837C28.1301 45.4737 28.0612 45.4688 27.9987 45.4688C27.8651 45.4688 27.7458 45.4979 27.6407 45.5561C27.537 45.6129 27.4546 45.6925 27.3936 45.7947C27.3339 45.897 27.3041 46.0149 27.3041 46.1484V48H26.3964ZM30.1778 48.0639C29.8426 48.0639 29.5542 47.9929 29.3128 47.8509C29.0727 47.7074 28.8881 47.5085 28.7588 47.2543C28.6309 47 28.567 46.7074 28.567 46.3764C28.567 46.0412 28.6317 45.7472 28.7609 45.4943C28.8916 45.2401 29.077 45.0419 29.317 44.8999C29.5571 44.7564 29.8426 44.6847 30.1736 44.6847C30.4591 44.6847 30.7091 44.7365 30.9236 44.8402C31.1381 44.9439 31.3078 45.0895 31.4328 45.277C31.5578 45.4645 31.6267 45.6847 31.6395 45.9375H30.7829C30.7588 45.7741 30.6949 45.6428 30.5912 45.5433C30.4889 45.4425 30.3547 45.392 30.1885 45.392C30.0479 45.392 29.925 45.4304 29.8199 45.5071C29.7162 45.5824 29.6352 45.6925 29.577 45.8374C29.5187 45.9822 29.4896 46.1577 29.4896 46.3636C29.4896 46.5724 29.518 46.75 29.5748 46.8963C29.6331 47.0426 29.7148 47.1541 29.8199 47.2308C29.925 47.3075 30.0479 47.3459 30.1885 47.3459C30.2922 47.3459 30.3852 47.3246 30.4676 47.282C30.5514 47.2393 30.6203 47.1776 30.6743 47.0966C30.7297 47.0142 30.7659 46.9155 30.7829 46.8004H31.6395C31.6253 47.0504 31.5571 47.2706 31.4349 47.4609C31.3142 47.6499 31.1473 47.7976 30.9342 47.9041C30.7211 48.0107 30.469 48.0639 30.1778 48.0639ZM33.1539 48.0618C32.945 48.0618 32.759 48.0256 32.5956 47.9531C32.4323 47.8793 32.303 47.7706 32.2078 47.6271C32.1141 47.4822 32.0672 47.3018 32.0672 47.0859C32.0672 46.9041 32.1006 46.7514 32.1673 46.6278C32.2341 46.5043 32.325 46.4048 32.4401 46.3295C32.5551 46.2543 32.6858 46.1974 32.8321 46.1591C32.9798 46.1207 33.1347 46.0938 33.2966 46.0781C33.4869 46.0582 33.6404 46.0398 33.7568 46.0227C33.8733 46.0043 33.9578 45.9773 34.0104 45.9418C34.0629 45.9062 34.0892 45.8537 34.0892 45.7841V45.7713C34.0892 45.6364 34.0466 45.532 33.9614 45.4581C33.8776 45.3842 33.7583 45.3473 33.6034 45.3473C33.4401 45.3473 33.3101 45.3835 33.2135 45.456C33.1169 45.527 33.053 45.6165 33.0218 45.7244L32.1823 45.6562C32.2249 45.4574 32.3087 45.2855 32.4337 45.1406C32.5587 44.9943 32.7199 44.8821 32.9173 44.804C33.1162 44.7244 33.3463 44.6847 33.6077 44.6847C33.7895 44.6847 33.9635 44.706 34.1297 44.7486C34.2973 44.7912 34.4458 44.8572 34.575 44.9467C34.7057 45.0362 34.8087 45.1513 34.884 45.2919C34.9593 45.4311 34.9969 45.598 34.9969 45.7926V48H34.1361V47.5462H34.1105C34.058 47.6484 33.9877 47.7386 33.8996 47.8168C33.8115 47.8935 33.7057 47.9538 33.5821 47.9979C33.4585 48.0405 33.3158 48.0618 33.1539 48.0618ZM33.4138 47.4354C33.5473 47.4354 33.6652 47.4091 33.7675 47.3565C33.8698 47.3026 33.95 47.2301 34.0083 47.1392C34.0665 47.0483 34.0956 46.9453 34.0956 46.8303V46.483C34.0672 46.5014 34.0281 46.5185 33.9784 46.5341C33.9301 46.5483 33.8754 46.5618 33.8144 46.5746C33.7533 46.5859 33.6922 46.5966 33.6311 46.6065C33.57 46.6151 33.5146 46.6229 33.4649 46.63C33.3584 46.6456 33.2654 46.6705 33.1858 46.7045C33.1063 46.7386 33.0445 46.7848 33.0004 46.843C32.9564 46.8999 32.9344 46.9709 32.9344 47.0561C32.9344 47.1797 32.9791 47.2741 33.0686 47.3395C33.1595 47.4034 33.2746 47.4354 33.4138 47.4354ZM35.7011 48V44.7273H36.5811V45.2983H36.6151C36.6748 45.0952 36.7749 44.9418 36.9156 44.8381C37.0562 44.733 37.2181 44.6804 37.4014 44.6804C37.4468 44.6804 37.4958 44.6832 37.5484 44.6889C37.6009 44.6946 37.6471 44.7024 37.6869 44.7124V45.5178C37.6443 45.505 37.5853 45.4936 37.51 45.4837C37.4347 45.4737 37.3659 45.4688 37.3034 45.4688C37.1698 45.4688 37.0505 45.4979 36.9454 45.5561C36.8417 45.6129 36.7593 45.6925 36.6982 45.7947C36.6386 45.897 36.6088 46.0149 36.6088 46.1484V48H35.7011ZM21.2929 52.1641H20.3596C20.3426 52.0433 20.3078 51.9361 20.2552 51.8423C20.2027 51.7472 20.1352 51.6662 20.0528 51.5994C19.9704 51.5327 19.8753 51.4815 19.7673 51.446C19.6608 51.4105 19.545 51.3928 19.42 51.3928C19.1942 51.3928 18.9974 51.4489 18.8298 51.5611C18.6622 51.6719 18.5322 51.8338 18.4399 52.0469C18.3476 52.2585 18.3014 52.5156 18.3014 52.8182C18.3014 53.1293 18.3476 53.3906 18.4399 53.6023C18.5336 53.8139 18.6643 53.9737 18.8319 54.0817C18.9996 54.1896 19.1934 54.2436 19.4136 54.2436C19.5372 54.2436 19.6515 54.2273 19.7567 54.1946C19.8632 54.1619 19.9577 54.1143 20.04 54.0518C20.1224 53.9879 20.1906 53.9105 20.2446 53.8196C20.3 53.7287 20.3383 53.625 20.3596 53.5085L21.2929 53.5128C21.2687 53.7131 21.2084 53.9062 21.1118 54.0923C21.0166 54.277 20.8881 54.4425 20.7261 54.5888C20.5656 54.7337 20.3738 54.8487 20.1508 54.9339C19.9292 55.0178 19.6785 55.0597 19.3987 55.0597C19.0095 55.0597 18.6615 54.9716 18.3547 54.7955C18.0493 54.6193 17.8078 54.3643 17.6302 54.0305C17.4541 53.6967 17.366 53.2926 17.366 52.8182C17.366 52.3423 17.4555 51.9375 17.6345 51.6037C17.8135 51.2699 18.0564 51.0156 18.3632 50.8409C18.67 50.6648 19.0152 50.5767 19.3987 50.5767C19.6515 50.5767 19.8859 50.6122 20.1018 50.6832C20.3192 50.7543 20.5116 50.858 20.6792 50.9943C20.8469 51.1293 20.9832 51.2947 21.0883 51.4908C21.1949 51.6868 21.2631 51.9112 21.2929 52.1641ZM23.4161 55.0639C23.0851 55.0639 22.7989 54.9936 22.5574 54.853C22.3174 54.7109 22.132 54.5135 22.0013 54.2607C21.8706 54.0064 21.8053 53.7116 21.8053 53.3764C21.8053 53.0384 21.8706 52.7429 22.0013 52.4901C22.132 52.2358 22.3174 52.0384 22.5574 51.8977C22.7989 51.7557 23.0851 51.6847 23.4161 51.6847C23.7471 51.6847 24.0326 51.7557 24.2726 51.8977C24.5141 52.0384 24.7002 52.2358 24.8309 52.4901C24.9616 52.7429 25.0269 53.0384 25.0269 53.3764C25.0269 53.7116 24.9616 54.0064 24.8309 54.2607C24.7002 54.5135 24.5141 54.7109 24.2726 54.853C24.0326 54.9936 23.7471 55.0639 23.4161 55.0639ZM23.4204 54.3608C23.5709 54.3608 23.6966 54.3182 23.7975 54.233C23.8983 54.1463 23.9743 54.0284 24.0255 53.8793C24.078 53.7301 24.1043 53.5604 24.1043 53.37C24.1043 53.1797 24.078 53.0099 24.0255 52.8608C23.9743 52.7116 23.8983 52.5937 23.7975 52.5071C23.6966 52.4205 23.5709 52.3771 23.4204 52.3771C23.2684 52.3771 23.1405 52.4205 23.0368 52.5071C22.9346 52.5937 22.8572 52.7116 22.8046 52.8608C22.7535 53.0099 22.7279 53.1797 22.7279 53.37C22.7279 53.5604 22.7535 53.7301 22.8046 53.8793C22.8572 54.0284 22.9346 54.1463 23.0368 54.233C23.1405 54.3182 23.2684 54.3608 23.4204 54.3608ZM26.5248 53.108V55H25.6171V51.7273H26.4822V52.3047H26.5205C26.593 52.1143 26.7144 51.9638 26.8849 51.853C27.0553 51.7408 27.262 51.6847 27.5049 51.6847C27.7322 51.6847 27.9303 51.7344 28.0993 51.8338C28.2684 51.9332 28.3998 52.0753 28.4935 52.2599C28.5873 52.4432 28.6341 52.6619 28.6341 52.9162V55H27.7265V53.0781C27.7279 52.8778 27.6768 52.7216 27.5731 52.6094C27.4694 52.4957 27.3266 52.4389 27.1448 52.4389C27.0226 52.4389 26.9147 52.4652 26.8209 52.5178C26.7286 52.5703 26.6562 52.647 26.6036 52.7479C26.5525 52.8473 26.5262 52.9673 26.5248 53.108ZM32.0725 52.6605L31.2416 52.7116C31.2274 52.6406 31.1968 52.5767 31.1499 52.5199C31.1031 52.4616 31.0413 52.4155 30.9646 52.3814C30.8893 52.3459 30.7991 52.3281 30.694 52.3281C30.5534 52.3281 30.4347 52.358 30.3382 52.4176C30.2416 52.4759 30.1933 52.554 30.1933 52.652C30.1933 52.7301 30.2245 52.7962 30.287 52.8501C30.3495 52.9041 30.4568 52.9474 30.6088 52.9801L31.2011 53.0994C31.5193 53.1648 31.7565 53.2699 31.9127 53.4148C32.069 53.5597 32.1471 53.75 32.1471 53.9858C32.1471 54.2003 32.0839 54.3885 31.9575 54.5504C31.8325 54.7124 31.6606 54.8388 31.4419 54.9297C31.2245 55.0192 30.9738 55.0639 30.6897 55.0639C30.2565 55.0639 29.9113 54.9737 29.6542 54.7933C29.3985 54.6115 29.2487 54.3643 29.2046 54.0518L30.0974 54.005C30.1244 54.1371 30.1897 54.2379 30.2934 54.3075C30.3971 54.3757 30.5299 54.4098 30.6919 54.4098C30.8509 54.4098 30.9788 54.3793 31.0754 54.3182C31.1734 54.2557 31.2231 54.1754 31.2245 54.0774C31.2231 53.995 31.1883 53.9276 31.1201 53.875C31.0519 53.821 30.9468 53.7798 30.8048 53.7514L30.238 53.6385C29.9184 53.5746 29.6805 53.4638 29.5242 53.3061C29.3694 53.1484 29.292 52.9474 29.292 52.7031C29.292 52.4929 29.3488 52.3118 29.4624 52.1598C29.5775 52.0078 29.7387 51.8906 29.9461 51.8082C30.1549 51.7259 30.3992 51.6847 30.6791 51.6847C31.0924 51.6847 31.4177 51.772 31.6549 51.9467C31.8936 52.1214 32.0328 52.3594 32.0725 52.6605ZM34.8174 53.6065V51.7273H35.7251V55H34.8536V54.4055H34.8195C34.7456 54.5973 34.6228 54.7514 34.4509 54.8679C34.2805 54.9844 34.0724 55.0426 33.8266 55.0426C33.6079 55.0426 33.4154 54.9929 33.2492 54.8935C33.083 54.794 32.953 54.6527 32.8593 54.4695C32.767 54.2862 32.7201 54.0668 32.7187 53.8111V51.7273H33.6263V53.6491C33.6278 53.8423 33.6796 53.995 33.7819 54.1072C33.8841 54.2195 34.0212 54.2756 34.1931 54.2756C34.3025 54.2756 34.4047 54.2507 34.4999 54.201C34.5951 54.1499 34.6718 54.0746 34.73 53.9751C34.7897 53.8757 34.8188 53.7528 34.8174 53.6065ZM37.3588 50.6364V55H36.4511V50.6364H37.3588ZM39.8266 51.7273V52.4091H37.8557V51.7273H39.8266ZM38.3032 50.9432H39.2108V53.9943C39.2108 54.0781 39.2236 54.1435 39.2492 54.1903C39.2748 54.2358 39.3103 54.2678 39.3557 54.2862C39.4026 54.3047 39.4566 54.3139 39.5177 54.3139C39.5603 54.3139 39.6029 54.3104 39.6455 54.3033C39.6881 54.2947 39.7208 54.2884 39.7435 54.2841L39.8863 54.9595C39.8408 54.9737 39.7769 54.9901 39.6945 55.0085C39.6121 55.0284 39.512 55.0405 39.3941 55.0447C39.1753 55.0533 38.9836 55.0241 38.8188 54.9574C38.6555 54.8906 38.5283 54.7869 38.4374 54.6463C38.3465 54.5057 38.3018 54.3281 38.3032 54.1136V50.9432ZM41.3511 55.0618C41.1423 55.0618 40.9562 55.0256 40.7929 54.9531C40.6295 54.8793 40.5003 54.7706 40.4051 54.6271C40.3113 54.4822 40.2645 54.3018 40.2645 54.0859C40.2645 53.9041 40.2979 53.7514 40.3646 53.6278C40.4314 53.5043 40.5223 53.4048 40.6373 53.3295C40.7524 53.2543 40.8831 53.1974 41.0294 53.1591C41.1771 53.1207 41.3319 53.0938 41.4939 53.0781C41.6842 53.0582 41.8376 53.0398 41.9541 53.0227C42.0706 53.0043 42.1551 52.9773 42.2077 52.9418C42.2602 52.9062 42.2865 52.8537 42.2865 52.7841V52.7713C42.2865 52.6364 42.2439 52.532 42.1586 52.4581C42.0748 52.3842 41.9555 52.3473 41.8007 52.3473C41.6373 52.3473 41.5074 52.3835 41.4108 52.456C41.3142 52.527 41.2503 52.6165 41.219 52.7244L40.3795 52.6562C40.4221 52.4574 40.5059 52.2855 40.6309 52.1406C40.7559 51.9943 40.9172 51.8821 41.1146 51.804C41.3135 51.7244 41.5436 51.6847 41.805 51.6847C41.9868 51.6847 42.1608 51.706 42.327 51.7486C42.4946 51.7912 42.643 51.8572 42.7723 51.9467C42.903 52.0362 43.0059 52.1513 43.0812 52.2919C43.1565 52.4311 43.1942 52.598 43.1942 52.7926V55H42.3334V54.5462H42.3078C42.2552 54.6484 42.1849 54.7386 42.0969 54.8168C42.0088 54.8935 41.903 54.9538 41.7794 54.9979C41.6558 55.0405 41.5131 55.0618 41.3511 55.0618ZM41.6111 54.4354C41.7446 54.4354 41.8625 54.4091 41.9648 54.3565C42.067 54.3026 42.1473 54.2301 42.2055 54.1392C42.2638 54.0483 42.2929 53.9453 42.2929 53.8303V53.483C42.2645 53.5014 42.2254 53.5185 42.1757 53.5341C42.1274 53.5483 42.0727 53.5618 42.0116 53.5746C41.9506 53.5859 41.8895 53.5966 41.8284 53.6065C41.7673 53.6151 41.7119 53.6229 41.6622 53.63C41.5557 53.6456 41.4626 53.6705 41.3831 53.7045C41.3035 53.7386 41.2417 53.7848 41.1977 53.843C41.1537 53.8999 41.1317 53.9709 41.1317 54.0561C41.1317 54.1797 41.1764 54.2741 41.2659 54.3395C41.3568 54.4034 41.4719 54.4354 41.6111 54.4354Z" fill="#242F9B"/>
<g clip-path="url(#clip0_5_312)">
<path d="M66.0671 20.3427C68.4618 20.3427 69.8874 21.7624 69.8874 23.9364V34.1136C69.8874 34.9021 69.8164 35.5405 69.8164 35.5405H58.881V25.6493H58.4352L56.4053 28.663C56.0748 29.1116 55.4036 29.3291 54.869 29.3291H50.1039C49.9157 29.3293 49.7293 29.2925 49.5554 29.221C49.3815 29.1495 49.2234 29.0445 49.0903 28.9122C48.9571 28.7799 48.8515 28.6227 48.7794 28.4497C48.7073 28.2767 48.6701 28.0913 48.6701 27.904C48.6701 27.1183 49.3116 26.498 50.1039 26.498H54.4378L57.444 21.9731C58.1657 20.8788 59.5012 20.3568 60.7078 20.3568C60.7078 23.5391 61.5047 24.8857 62.9453 24.8857V30.1764C62.7407 30.2639 62.5663 30.4092 62.4437 30.5942C62.3211 30.7793 62.2557 30.9961 62.2555 31.2177C62.2548 31.3657 62.2836 31.5123 62.3402 31.6492C62.3968 31.786 62.48 31.9104 62.5851 32.0151C62.6902 32.1198 62.8151 32.2027 62.9526 32.2591C63.0901 32.3155 63.2374 32.3443 63.3861 32.3437C64.0149 32.3437 64.5185 31.8294 64.5185 31.2023C64.5185 30.7356 64.2339 30.335 63.8287 30.1624V24.8699C65.2685 24.8694 66.0662 23.5246 66.0662 20.3427H66.0671ZM65.1688 20.3427C65.1433 23.6048 64.5764 24.0339 63.3866 24.0339C62.1981 24.0339 61.6308 23.6043 61.6057 20.3427H65.1688ZM63.367 12.9962C63.7966 12.9962 64.2219 13.0804 64.6188 13.244C65.0156 13.4077 65.3762 13.6475 65.6799 13.9499C65.9836 14.2522 66.2244 14.6111 66.3887 15.0061C66.5529 15.4011 66.6374 15.8244 66.6372 16.2519C66.6372 17.115 66.2927 17.9428 65.6794 18.5532C65.0661 19.1636 64.2343 19.5066 63.367 19.5067C62.4994 19.5067 61.6674 19.1638 61.0538 18.5535C60.4402 17.9431 60.0953 17.1153 60.0949 16.2519C60.0949 15.8243 60.1796 15.4009 60.344 15.0059C60.5085 14.6109 60.7495 14.2519 61.0533 13.9496C61.3572 13.6473 61.7179 13.4075 62.1149 13.2439C62.5118 13.0803 62.9373 12.9961 63.367 12.9962ZM55.3285 13.4412C55.4252 13.4434 55.5213 13.4264 55.6113 13.3911C55.7013 13.3558 55.7833 13.3029 55.8524 13.2356C55.9215 13.1683 55.9764 13.0879 56.0139 12.9992C56.0513 12.9104 56.0705 12.8151 56.0703 12.7189C56.0702 12.6226 56.0507 12.5274 56.013 12.4387C55.9753 12.3501 55.9201 12.2699 55.8508 12.2028C55.7814 12.1357 55.6993 12.0831 55.6092 12.0481C55.5191 12.013 55.4229 11.9963 55.3262 11.9989C55.1371 12.0039 54.9575 12.0822 54.8257 12.2171C54.6939 12.3521 54.6203 12.5329 54.6206 12.7211C54.6209 12.9093 54.695 13.0899 54.8273 13.2245C54.9595 13.359 55.1394 13.4368 55.3285 13.4412ZM50.1508 9.46771C50.2864 9.46765 50.4206 9.44102 50.5458 9.38935C50.671 9.33767 50.7848 9.26195 50.8806 9.16652C50.9764 9.07109 51.0524 8.95782 51.1042 8.83317C51.156 8.70851 51.1827 8.57492 51.1826 8.44003C51.1825 8.30513 51.1558 8.17156 51.1039 8.04695C51.0519 7.92235 50.9758 7.80914 50.8799 7.71379C50.7841 7.61845 50.6702 7.54283 50.545 7.49126C50.4197 7.4397 50.2855 7.41318 50.1499 7.41324C49.8761 7.41336 49.6136 7.52171 49.4201 7.71443C49.2266 7.90716 49.118 8.16849 49.1181 8.44093C49.1182 8.71337 49.2271 8.9746 49.4208 9.16716C49.6144 9.35972 49.877 9.46783 50.1508 9.46771ZM44.547 9.47451C44.8238 9.47559 45.0898 9.36724 45.2865 9.17326C45.4831 8.97928 45.5943 8.71555 45.5956 8.44003C45.5943 8.1645 45.4831 7.90077 45.2865 7.70679C45.0898 7.51281 44.8238 7.40446 44.547 7.40554C44.4099 7.405 44.2742 7.43134 44.1473 7.48304C44.0205 7.53475 43.9052 7.6108 43.808 7.70687C43.7107 7.80294 43.6334 7.91713 43.5805 8.04293C43.5276 8.16872 43.5002 8.30366 43.4997 8.44003C43.5008 8.71539 43.6117 8.97906 43.8081 9.17305C44.0045 9.36704 44.2703 9.47547 44.547 9.47451Z" fill="#242F9B"/>
<path d="M54.3454 19.663C54.3462 19.7754 54.3917 19.883 54.4719 19.9622C54.552 20.0414 54.6604 20.0858 54.7734 20.0858C54.886 20.0856 54.9938 20.0409 55.0734 19.9617C55.1529 19.8824 55.1977 19.775 55.1978 19.663V17.1346H55.5302V19.663C55.5302 19.8959 55.7205 20.0858 55.9555 20.0858C56.0683 20.0858 56.1766 20.0413 56.2567 19.9621C56.3367 19.8829 56.382 19.7754 56.3826 19.663V14.9365H56.7113V16.5392C56.7113 16.7136 56.8529 16.855 57.0273 16.855C57.0688 16.8549 57.1098 16.8466 57.148 16.8307C57.1862 16.8147 57.2209 16.7914 57.25 16.762C57.2791 16.7326 57.3021 16.6978 57.3177 16.6596C57.3332 16.6214 57.341 16.5804 57.3406 16.5392V14.7172C57.3406 14.207 56.8889 13.7932 56.378 13.7932C56.378 13.7932 54.4128 13.7946 54.4046 13.7955L53.7685 13.7343L52.9511 10.8996C52.6215 9.75636 51.6598 9.79261 51.6598 9.79261H49.0102C49.0102 9.79261 48.0485 9.75636 47.7189 10.8996L47.2908 12.384L46.8628 10.8996C46.5332 9.75636 45.5715 9.79261 45.5715 9.79261H43.5216C43.5216 9.79261 42.5603 9.75636 42.2307 10.8996L41.4056 13.7602C41.3268 14.0271 41.4584 14.2763 41.6925 14.3438C41.9274 14.41 42.1838 14.2477 42.2466 14.0343L43.0475 11.2453H43.4396L42.2666 16.0729H43.303V19.5022C43.303 19.7849 43.532 20.0142 43.8162 20.0142C44.1007 20.0142 44.333 19.7849 44.333 19.5022V16.0729H44.7669V19.5022C44.7669 19.638 44.8211 19.7682 44.9176 19.8642C45.0141 19.9603 45.145 20.0142 45.2814 20.0142C45.4179 20.0142 45.5488 19.9603 45.6453 19.8642C45.7418 19.7682 45.796 19.638 45.796 19.5022V16.0729H46.8155L45.653 11.2453H46.045L46.8469 14.0343C46.9015 14.2196 47.0723 14.3692 47.274 14.3524C47.4757 14.3696 47.6815 14.2192 47.7343 14.0343L48.5371 11.2453H48.8982V19.4034C48.9025 19.5608 48.9684 19.7103 49.0818 19.8201C49.1952 19.9299 49.3472 19.9913 49.5054 19.9913C49.6636 19.9913 49.8156 19.9299 49.929 19.8201C50.0424 19.7103 50.1082 19.5608 50.1126 19.4034V14.762H50.5602V19.4034C50.5662 19.5594 50.6328 19.707 50.7459 19.8153C50.859 19.9235 51.0098 19.984 51.1667 19.984C51.3236 19.984 51.4744 19.9235 51.5875 19.8153C51.7005 19.707 51.7671 19.5594 51.7732 19.4034V11.2453H52.1652L52.9106 13.9414C52.9575 14.1032 53.126 14.2609 53.3068 14.3152L54.3463 14.6048V19.6635L54.3454 19.663Z" fill="#242F9B"/>
</g>
</g>
<defs>
<filter id="filter0_d_5_312" x="0" y="0" width="81.3564" height="80" filterUnits="userSpaceOnUse" color-interpolation-filters="sRGB">
<feFlood flood-opacity="0" result="BackgroundImageFix"/>
<feColorMatrix in="SourceAlpha" type="matrix" values="0 0 0 0 0 0 0 0 0 0 0 0 0 0 0 0 0 0 127 0" result="hardAlpha"/>
<feOffset dy="4"/>
<feGaussianBlur stdDeviation="2"/>
<feComposite in2="hardAlpha" operator="out"/>
<feColorMatrix type="matrix" values="0 0 0 0 0 0 0 0 0 0 0 0 0 0 0 0 0 0 0.25 0"/>
<feBlend mode="normal" in2="BackgroundImageFix" result="effect1_dropShadow_5_312"/>
<feBlend mode="normal" in="SourceGraphic" in2="effect1_dropShadow_5_312" result="shape"/>
</filter>
<clipPath id="clip0_5_312">
<rect width="29.1416" height="29" fill="white" transform="translate(41.1807 7)"/>
</clipPath>
</defs>
</svg>
