<svg width="35" height="35" viewBox="0 0 35 35" fill="none" xmlns="http://www.w3.org/2000/svg">
<path d="M6.35104 6.39771C7.80938 5.18 9.68917 4.375 11.3021 4.375C12.5694 4.375 13.564 4.57625 14.3748 4.91458C15.1915 5.25729 15.7631 5.71375 16.205 6.14396C16.3975 6.33354 16.5696 6.52021 16.711 6.67479L16.7548 6.72292C16.9152 6.89792 17.0275 7.0175 17.134 7.11229C17.3148 7.27271 17.3965 7.29167 17.5 7.29167C17.6035 7.29167 17.6852 7.27271 17.8646 7.11229C17.9725 7.0175 18.0863 6.89792 18.2452 6.72292L18.289 6.67479C18.4319 6.52021 18.6025 6.33208 18.795 6.14396C19.3197 5.6199 19.9413 5.20286 20.6252 4.91604C21.436 4.57625 22.4292 4.375 23.6979 4.375C25.3108 4.375 27.1906 5.18 28.649 6.39771C30.116 7.62271 31.3542 9.4325 31.3542 11.5908C31.3542 12.7254 31.3513 14.9537 29.3519 17.3337C28.8123 18.1869 28.4419 19.1931 28.4375 20.0579C28.4229 22.8667 27.8002 25.2394 26.8581 26.9485C25.9598 28.5819 24.589 29.8958 22.9688 29.8958C22.4467 29.8958 21.961 29.75 21.5454 29.4437C21.1779 29.1602 20.8871 28.7892 20.6996 28.3646C20.351 27.6179 20.1994 26.6525 20.09 25.7352C20.0452 25.3476 20.0034 24.9597 19.9646 24.5715C19.7969 22.9542 19.6233 21.2756 19.0502 19.7648C18.779 19.2442 18.3123 18.9583 17.8646 18.9583H17.1354C16.6775 18.9583 16.1977 19.2573 15.9308 19.8042C15.1375 21.4229 15.0398 23.2502 14.945 25.0031L14.9071 25.6856C14.8531 26.5825 14.7685 27.5756 14.4258 28.3485C14.2363 28.8002 13.9228 29.189 13.5217 29.47C13.0796 29.76 12.5598 29.9085 12.0313 29.8958C10.2229 29.8958 8.83896 28.6256 7.9625 26.9208C7.07729 25.2 6.57709 22.8287 6.5625 20.0579C6.55813 19.2821 6.26063 18.3881 5.79834 17.5831C5.68578 17.4042 5.55794 17.2354 5.41625 17.0785C3.64584 14.9771 3.64584 12.6583 3.64584 11.6171V11.5908C3.64584 9.4325 4.88396 7.62271 6.35104 6.39771ZM22.9688 8.75C22.6787 8.75 22.4005 8.86523 22.1954 9.07035C21.9902 9.27547 21.875 9.55367 21.875 9.84375C21.875 10.1338 21.9902 10.412 22.1954 10.6171C22.4005 10.8223 22.6787 10.9375 22.9688 10.9375C24.01 10.9375 24.7917 11.7192 24.7917 12.7604C24.7917 13.0505 24.9069 13.3287 25.112 13.5338C25.3171 13.7389 25.5953 13.8542 25.8854 13.8542C26.1755 13.8542 26.4537 13.7389 26.6588 13.5338C26.8639 13.3287 26.9792 13.0505 26.9792 12.7604C26.985 12.2321 26.8853 11.708 26.6858 11.2188C26.4864 10.7296 26.1912 10.2851 25.8176 9.91157C25.444 9.53799 24.9996 9.24281 24.5104 9.04334C24.0212 8.84387 23.497 8.74414 22.9688 8.75Z" fill="#DBDFFD"/>
</svg>
