<svg width="74" height="72" viewBox="0 0 74 72" fill="none" xmlns="http://www.w3.org/2000/svg">
<rect width="73.3564" height="72" rx="11" fill="#DBDFFD"/>
<path d="M14.2311 43.6364L15.2858 46.9517H15.3263L16.3831 43.6364H17.4058L15.9015 48H14.7126L13.2062 43.6364H14.2311ZM17.914 48V44.7273H18.8216V48H17.914ZM18.3699 44.3054C18.235 44.3054 18.1192 44.2607 18.0226 44.1712C17.9275 44.0803 17.8799 43.9716 17.8799 43.8452C17.8799 43.7202 17.9275 43.6129 18.0226 43.5234C18.1192 43.4325 18.235 43.3871 18.3699 43.3871C18.5049 43.3871 18.6199 43.4325 18.7151 43.5234C18.8117 43.6129 18.86 43.7202 18.86 43.8452C18.86 43.9716 18.8117 44.0803 18.7151 44.1712C18.6199 44.2607 18.5049 44.3054 18.3699 44.3054ZM22.2718 45.6605L21.4408 45.7116C21.4266 45.6406 21.396 45.5767 21.3492 45.5199C21.3023 45.4616 21.2405 45.4155 21.1638 45.3814C21.0885 45.3459 20.9983 45.3281 20.8932 45.3281C20.7526 45.3281 20.634 45.358 20.5374 45.4176C20.4408 45.4759 20.3925 45.554 20.3925 45.652C20.3925 45.7301 20.4237 45.7962 20.4862 45.8501C20.5487 45.9041 20.656 45.9474 20.808 45.9801L21.4003 46.0994C21.7185 46.1648 21.9557 46.2699 22.1119 46.4148C22.2682 46.5597 22.3463 46.75 22.3463 46.9858C22.3463 47.2003 22.2831 47.3885 22.1567 47.5504C22.0317 47.7124 21.8598 47.8388 21.6411 47.9297C21.4237 48.0192 21.173 48.0639 20.8889 48.0639C20.4557 48.0639 20.1105 47.9737 19.8534 47.7933C19.5977 47.6115 19.4479 47.3643 19.4039 47.0518L20.2966 47.005C20.3236 47.1371 20.3889 47.2379 20.4926 47.3075C20.5963 47.3757 20.7291 47.4098 20.8911 47.4098C21.0502 47.4098 21.178 47.3793 21.2746 47.3182C21.3726 47.2557 21.4223 47.1754 21.4237 47.0774C21.4223 46.995 21.3875 46.9276 21.3193 46.875C21.2512 46.821 21.146 46.7798 21.004 46.7514L20.4372 46.6385C20.1176 46.5746 19.8797 46.4638 19.7235 46.3061C19.5686 46.1484 19.4912 45.9474 19.4912 45.7031C19.4912 45.4929 19.548 45.3118 19.6617 45.1598C19.7767 45.0078 19.9379 44.8906 20.1453 44.8082C20.3541 44.7259 20.5985 44.6847 20.8783 44.6847C21.2916 44.6847 21.6169 44.772 21.8541 44.9467C22.0928 45.1214 22.232 45.3594 22.2718 45.6605ZM25.0166 46.6065V44.7273H25.9243V48H25.0528V47.4055H25.0187C24.9449 47.5973 24.822 47.7514 24.6501 47.8679C24.4797 47.9844 24.2716 48.0426 24.0258 48.0426C23.8071 48.0426 23.6146 47.9929 23.4484 47.8935C23.2822 47.794 23.1523 47.6527 23.0585 47.4695C22.9662 47.2862 22.9193 47.0668 22.9179 46.8111V44.7273H23.8256V46.6491C23.827 46.8423 23.8788 46.995 23.9811 47.1072C24.0834 47.2195 24.2204 47.2756 24.3923 47.2756C24.5017 47.2756 24.604 47.2507 24.6991 47.201C24.7943 47.1499 24.871 47.0746 24.9292 46.9751C24.9889 46.8757 25.018 46.7528 25.0166 46.6065ZM27.5835 48.0618C27.3747 48.0618 27.1887 48.0256 27.0253 47.9531C26.8619 47.8793 26.7327 47.7706 26.6375 47.6271C26.5438 47.4822 26.4969 47.3018 26.4969 47.0859C26.4969 46.9041 26.5303 46.7514 26.597 46.6278C26.6638 46.5043 26.7547 46.4048 26.8698 46.3295C26.9848 46.2543 27.1155 46.1974 27.2618 46.1591C27.4095 46.1207 27.5644 46.0938 27.7263 46.0781C27.9166 46.0582 28.07 46.0398 28.1865 46.0227C28.303 46.0043 28.3875 45.9773 28.4401 45.9418C28.4926 45.9062 28.5189 45.8537 28.5189 45.7841V45.7713C28.5189 45.6364 28.4763 45.532 28.3911 45.4581C28.3073 45.3842 28.1879 45.3473 28.0331 45.3473C27.8698 45.3473 27.7398 45.3835 27.6432 45.456C27.5466 45.527 27.4827 45.6165 27.4514 45.7244L26.6119 45.6562C26.6546 45.4574 26.7384 45.2855 26.8634 45.1406C26.9884 44.9943 27.1496 44.8821 27.347 44.804C27.5459 44.7244 27.776 44.6847 28.0374 44.6847C28.2192 44.6847 28.3932 44.706 28.5594 44.7486C28.727 44.7912 28.8754 44.8572 29.0047 44.9467C29.1354 45.0362 29.2384 45.1513 29.3137 45.2919C29.3889 45.4311 29.4266 45.598 29.4266 45.7926V48H28.5658V47.5462H28.5402C28.4877 47.6484 28.4173 47.7386 28.3293 47.8168C28.2412 47.8935 28.1354 47.9538 28.0118 47.9979C27.8882 48.0405 27.7455 48.0618 27.5835 48.0618ZM27.8435 47.4354C27.977 47.4354 28.0949 47.4091 28.1972 47.3565C28.2994 47.3026 28.3797 47.2301 28.4379 47.1392C28.4962 47.0483 28.5253 46.9453 28.5253 46.8303V46.483C28.4969 46.5014 28.4578 46.5185 28.4081 46.5341C28.3598 46.5483 28.3051 46.5618 28.2441 46.5746C28.183 46.5859 28.1219 46.5966 28.0608 46.6065C27.9997 46.6151 27.9443 46.6229 27.8946 46.63C27.7881 46.6456 27.695 46.6705 27.6155 46.7045C27.536 46.7386 27.4742 46.7848 27.4301 46.843C27.3861 46.8999 27.3641 46.9709 27.3641 47.0561C27.3641 47.1797 27.4088 47.2741 27.4983 47.3395C27.5892 47.4034 27.7043 47.4354 27.8435 47.4354ZM31.0384 43.6364V48H30.1308V43.6364H31.0384ZM31.7655 48V44.7273H32.6732V48H31.7655ZM32.2215 44.3054C32.0866 44.3054 31.9708 44.2607 31.8742 44.1712C31.779 44.0803 31.7314 43.9716 31.7314 43.8452C31.7314 43.7202 31.779 43.6129 31.8742 43.5234C31.9708 43.4325 32.0866 43.3871 32.2215 43.3871C32.3564 43.3871 32.4715 43.4325 32.5667 43.5234C32.6633 43.6129 32.7116 43.7202 32.7116 43.8452C32.7116 43.9716 32.6633 44.0803 32.5667 44.1712C32.4715 44.2607 32.3564 44.3054 32.2215 44.3054ZM33.3833 48V47.4588L34.9855 45.4751V45.4517H33.4387V44.7273H36.0786V45.3175L34.5743 47.2521V47.2756H36.134V48H33.3833ZM37.7613 48.0618C37.5525 48.0618 37.3664 48.0256 37.203 47.9531C37.0397 47.8793 36.9104 47.7706 36.8153 47.6271C36.7215 47.4822 36.6746 47.3018 36.6746 47.0859C36.6746 46.9041 36.708 46.7514 36.7748 46.6278C36.8415 46.5043 36.9324 46.4048 37.0475 46.3295C37.1626 46.2543 37.2932 46.1974 37.4395 46.1591C37.5873 46.1207 37.7421 46.0938 37.904 46.0781C38.0944 46.0582 38.2478 46.0398 38.3643 46.0227C38.4807 46.0043 38.5653 45.9773 38.6178 45.9418C38.6704 45.9062 38.6966 45.8537 38.6966 45.7841V45.7713C38.6966 45.6364 38.654 45.532 38.5688 45.4581C38.485 45.3842 38.3657 45.3473 38.2108 45.3473C38.0475 45.3473 37.9175 45.3835 37.8209 45.456C37.7243 45.527 37.6604 45.6165 37.6292 45.7244L36.7897 45.6562C36.8323 45.4574 36.9161 45.2855 37.0411 45.1406C37.1661 44.9943 37.3273 44.8821 37.5248 44.804C37.7236 44.7244 37.9537 44.6847 38.2151 44.6847C38.3969 44.6847 38.5709 44.706 38.7371 44.7486C38.9047 44.7912 39.0532 44.8572 39.1824 44.9467C39.3131 45.0362 39.4161 45.1513 39.4914 45.2919C39.5667 45.4311 39.6043 45.598 39.6043 45.7926V48H38.7435V47.5462H38.718C38.6654 47.6484 38.5951 47.7386 38.507 47.8168C38.4189 47.8935 38.3131 47.9538 38.1895 47.9979C38.066 48.0405 37.9232 48.0618 37.7613 48.0618ZM38.0212 47.4354C38.1547 47.4354 38.2726 47.4091 38.3749 47.3565C38.4772 47.3026 38.5574 47.2301 38.6157 47.1392C38.6739 47.0483 38.703 46.9453 38.703 46.8303V46.483C38.6746 46.5014 38.6356 46.5185 38.5858 46.5341C38.5376 46.5483 38.4829 46.5618 38.4218 46.5746C38.3607 46.5859 38.2996 46.5966 38.2385 46.6065C38.1775 46.6151 38.1221 46.6229 38.0724 46.63C37.9658 46.6456 37.8728 46.6705 37.7932 46.7045C37.7137 46.7386 37.6519 46.7848 37.6079 46.843C37.5638 46.8999 37.5418 46.9709 37.5418 47.0561C37.5418 47.1797 37.5866 47.2741 37.676 47.3395C37.767 47.4034 37.882 47.4354 38.0212 47.4354ZM40.3085 48V44.7273H41.1885V45.2983H41.2226C41.2822 45.0952 41.3824 44.9418 41.523 44.8381C41.6636 44.733 41.8256 44.6804 42.0088 44.6804C42.0542 44.6804 42.1032 44.6832 42.1558 44.6889C42.2084 44.6946 42.2545 44.7024 42.2943 44.7124V45.5178C42.2517 45.505 42.1927 45.4936 42.1175 45.4837C42.0422 45.4737 41.9733 45.4688 41.9108 45.4688C41.7773 45.4688 41.6579 45.4979 41.5528 45.5561C41.4491 45.6129 41.3667 45.6925 41.3057 45.7947C41.246 45.897 41.2162 46.0149 41.2162 46.1484V48H40.3085ZM17.2929 52.1641H16.3596C16.3426 52.0433 16.3078 51.9361 16.2552 51.8423C16.2027 51.7472 16.1352 51.6662 16.0528 51.5994C15.9704 51.5327 15.8753 51.4815 15.7673 51.446C15.6608 51.4105 15.545 51.3928 15.42 51.3928C15.1942 51.3928 14.9974 51.4489 14.8298 51.5611C14.6622 51.6719 14.5322 51.8338 14.4399 52.0469C14.3476 52.2585 14.3014 52.5156 14.3014 52.8182C14.3014 53.1293 14.3476 53.3906 14.4399 53.6023C14.5336 53.8139 14.6643 53.9737 14.8319 54.0817C14.9996 54.1896 15.1934 54.2436 15.4136 54.2436C15.5372 54.2436 15.6515 54.2273 15.7567 54.1946C15.8632 54.1619 15.9577 54.1143 16.04 54.0518C16.1224 53.9879 16.1906 53.9105 16.2446 53.8196C16.3 53.7287 16.3383 53.625 16.3596 53.5085L17.2929 53.5128C17.2687 53.7131 17.2084 53.9062 17.1118 54.0923C17.0166 54.277 16.8881 54.4425 16.7261 54.5888C16.5656 54.7337 16.3738 54.8487 16.1508 54.9339C15.9292 55.0178 15.6785 55.0597 15.3987 55.0597C15.0095 55.0597 14.6615 54.9716 14.3547 54.7955C14.0493 54.6193 13.8078 54.3643 13.6302 54.0305C13.4541 53.6967 13.366 53.2926 13.366 52.8182C13.366 52.3423 13.4555 51.9375 13.6345 51.6037C13.8135 51.2699 14.0564 51.0156 14.3632 50.8409C14.67 50.6648 15.0152 50.5767 15.3987 50.5767C15.6515 50.5767 15.8859 50.6122 16.1018 50.6832C16.3192 50.7543 16.5116 50.858 16.6792 50.9943C16.8469 51.1293 16.9832 51.2947 17.0883 51.4908C17.1949 51.6868 17.2631 51.9112 17.2929 52.1641ZM19.4161 55.0639C19.0851 55.0639 18.7989 54.9936 18.5574 54.853C18.3174 54.7109 18.132 54.5135 18.0013 54.2607C17.8706 54.0064 17.8053 53.7116 17.8053 53.3764C17.8053 53.0384 17.8706 52.7429 18.0013 52.4901C18.132 52.2358 18.3174 52.0384 18.5574 51.8977C18.7989 51.7557 19.0851 51.6847 19.4161 51.6847C19.7471 51.6847 20.0326 51.7557 20.2726 51.8977C20.5141 52.0384 20.7002 52.2358 20.8309 52.4901C20.9616 52.7429 21.0269 53.0384 21.0269 53.3764C21.0269 53.7116 20.9616 54.0064 20.8309 54.2607C20.7002 54.5135 20.5141 54.7109 20.2726 54.853C20.0326 54.9936 19.7471 55.0639 19.4161 55.0639ZM19.4204 54.3608C19.5709 54.3608 19.6966 54.3182 19.7975 54.233C19.8983 54.1463 19.9743 54.0284 20.0255 53.8793C20.078 53.7301 20.1043 53.5604 20.1043 53.37C20.1043 53.1797 20.078 53.0099 20.0255 52.8608C19.9743 52.7116 19.8983 52.5937 19.7975 52.5071C19.6966 52.4205 19.5709 52.3771 19.4204 52.3771C19.2684 52.3771 19.1405 52.4205 19.0368 52.5071C18.9346 52.5937 18.8572 52.7116 18.8046 52.8608C18.7535 53.0099 18.7279 53.1797 18.7279 53.37C18.7279 53.5604 18.7535 53.7301 18.8046 53.8793C18.8572 54.0284 18.9346 54.1463 19.0368 54.233C19.1405 54.3182 19.2684 54.3608 19.4204 54.3608ZM22.5248 53.108V55H21.6171V51.7273H22.4822V52.3047H22.5205C22.593 52.1143 22.7144 51.9638 22.8849 51.853C23.0553 51.7408 23.262 51.6847 23.5049 51.6847C23.7322 51.6847 23.9303 51.7344 24.0993 51.8338C24.2684 51.9332 24.3998 52.0753 24.4935 52.2599C24.5873 52.4432 24.6341 52.6619 24.6341 52.9162V55H23.7265V53.0781C23.7279 52.8778 23.6768 52.7216 23.5731 52.6094C23.4694 52.4957 23.3266 52.4389 23.1448 52.4389C23.0226 52.4389 22.9147 52.4652 22.8209 52.5178C22.7286 52.5703 22.6562 52.647 22.6036 52.7479C22.5525 52.8473 22.5262 52.9673 22.5248 53.108ZM28.0725 52.6605L27.2416 52.7116C27.2274 52.6406 27.1968 52.5767 27.1499 52.5199C27.1031 52.4616 27.0413 52.4155 26.9646 52.3814C26.8893 52.3459 26.7991 52.3281 26.694 52.3281C26.5534 52.3281 26.4347 52.358 26.3382 52.4176C26.2416 52.4759 26.1933 52.554 26.1933 52.652C26.1933 52.7301 26.2245 52.7962 26.287 52.8501C26.3495 52.9041 26.4568 52.9474 26.6088 52.9801L27.2011 53.0994C27.5193 53.1648 27.7565 53.2699 27.9127 53.4148C28.069 53.5597 28.1471 53.75 28.1471 53.9858C28.1471 54.2003 28.0839 54.3885 27.9575 54.5504C27.8325 54.7124 27.6606 54.8388 27.4419 54.9297C27.2245 55.0192 26.9738 55.0639 26.6897 55.0639C26.2565 55.0639 25.9113 54.9737 25.6542 54.7933C25.3985 54.6115 25.2487 54.3643 25.2046 54.0518L26.0974 54.005C26.1244 54.1371 26.1897 54.2379 26.2934 54.3075C26.3971 54.3757 26.5299 54.4098 26.6919 54.4098C26.8509 54.4098 26.9788 54.3793 27.0754 54.3182C27.1734 54.2557 27.2231 54.1754 27.2245 54.0774C27.2231 53.995 27.1883 53.9276 27.1201 53.875C27.0519 53.821 26.9468 53.7798 26.8048 53.7514L26.238 53.6385C25.9184 53.5746 25.6805 53.4638 25.5242 53.3061C25.3694 53.1484 25.292 52.9474 25.292 52.7031C25.292 52.4929 25.3488 52.3118 25.4624 52.1598C25.5775 52.0078 25.7387 51.8906 25.9461 51.8082C26.1549 51.7259 26.3992 51.6847 26.6791 51.6847C27.0924 51.6847 27.4177 51.772 27.6549 51.9467C27.8936 52.1214 28.0328 52.3594 28.0725 52.6605ZM30.8174 53.6065V51.7273H31.7251V55H30.8536V54.4055H30.8195C30.7456 54.5973 30.6228 54.7514 30.4509 54.8679C30.2805 54.9844 30.0724 55.0426 29.8266 55.0426C29.6079 55.0426 29.4154 54.9929 29.2492 54.8935C29.083 54.794 28.953 54.6527 28.8593 54.4695C28.767 54.2862 28.7201 54.0668 28.7187 53.8111V51.7273H29.6263V53.6491C29.6278 53.8423 29.6796 53.995 29.7819 54.1072C29.8841 54.2195 30.0212 54.2756 30.1931 54.2756C30.3025 54.2756 30.4047 54.2507 30.4999 54.201C30.5951 54.1499 30.6718 54.0746 30.73 53.9751C30.7897 53.8757 30.8188 53.7528 30.8174 53.6065ZM33.3588 50.6364V55H32.4511V50.6364H33.3588ZM35.8266 51.7273V52.4091H33.8557V51.7273H35.8266ZM34.3032 50.9432H35.2108V53.9943C35.2108 54.0781 35.2236 54.1435 35.2492 54.1903C35.2748 54.2358 35.3103 54.2678 35.3557 54.2862C35.4026 54.3047 35.4566 54.3139 35.5177 54.3139C35.5603 54.3139 35.6029 54.3104 35.6455 54.3033C35.6881 54.2947 35.7208 54.2884 35.7435 54.2841L35.8863 54.9595C35.8408 54.9737 35.7769 54.9901 35.6945 55.0085C35.6121 55.0284 35.512 55.0405 35.3941 55.0447C35.1753 55.0533 34.9836 55.0241 34.8188 54.9574C34.6555 54.8906 34.5283 54.7869 34.4374 54.6463C34.3465 54.5057 34.3018 54.3281 34.3032 54.1136V50.9432ZM37.3511 55.0618C37.1423 55.0618 36.9562 55.0256 36.7929 54.9531C36.6295 54.8793 36.5003 54.7706 36.4051 54.6271C36.3113 54.4822 36.2645 54.3018 36.2645 54.0859C36.2645 53.9041 36.2979 53.7514 36.3646 53.6278C36.4314 53.5043 36.5223 53.4048 36.6373 53.3295C36.7524 53.2543 36.8831 53.1974 37.0294 53.1591C37.1771 53.1207 37.3319 53.0938 37.4939 53.0781C37.6842 53.0582 37.8376 53.0398 37.9541 53.0227C38.0706 53.0043 38.1551 52.9773 38.2077 52.9418C38.2602 52.9062 38.2865 52.8537 38.2865 52.7841V52.7713C38.2865 52.6364 38.2439 52.532 38.1586 52.4581C38.0748 52.3842 37.9555 52.3473 37.8007 52.3473C37.6373 52.3473 37.5074 52.3835 37.4108 52.456C37.3142 52.527 37.2503 52.6165 37.219 52.7244L36.3795 52.6562C36.4221 52.4574 36.5059 52.2855 36.6309 52.1406C36.7559 51.9943 36.9172 51.8821 37.1146 51.804C37.3135 51.7244 37.5436 51.6847 37.805 51.6847C37.9868 51.6847 38.1608 51.706 38.327 51.7486C38.4946 51.7912 38.643 51.8572 38.7723 51.9467C38.903 52.0362 39.0059 52.1513 39.0812 52.2919C39.1565 52.4311 39.1942 52.598 39.1942 52.7926V55H38.3334V54.5462H38.3078C38.2552 54.6484 38.1849 54.7386 38.0969 54.8168C38.0088 54.8935 37.903 54.9538 37.7794 54.9979C37.6558 55.0405 37.5131 55.0618 37.3511 55.0618ZM37.6111 54.4354C37.7446 54.4354 37.8625 54.4091 37.9648 54.3565C38.067 54.3026 38.1473 54.2301 38.2055 54.1392C38.2638 54.0483 38.2929 53.9453 38.2929 53.8303V53.483C38.2645 53.5014 38.2254 53.5185 38.1757 53.5341C38.1274 53.5483 38.0727 53.5618 38.0116 53.5746C37.9506 53.5859 37.8895 53.5966 37.8284 53.6065C37.7673 53.6151 37.7119 53.6229 37.6622 53.63C37.5557 53.6456 37.4626 53.6705 37.3831 53.7045C37.3035 53.7386 37.2417 53.7848 37.1977 53.843C37.1537 53.8999 37.1317 53.9709 37.1317 54.0561C37.1317 54.1797 37.1764 54.2741 37.2659 54.3395C37.3568 54.4034 37.4719 54.4354 37.6111 54.4354Z" fill="#242F9B"/>
<path d="M57 34.18L54.41 31.59L53 33L57 37L65 29L63.59 27.59L57 34.18Z" fill="#242F9B"/>
<path d="M47 35V17H59V26H61V13C60.9995 12.4697 60.7886 11.9613 60.4136 11.5864C60.0387 11.2114 59.5303 11.0005 59 11H47C46.4697 11.0005 45.9613 11.2114 45.5864 11.5864C45.2114 11.9613 45.0005 12.4697 45 13V35C45.0005 35.5303 45.2114 36.0387 45.5864 36.4136C45.9613 36.7886 46.4697 36.9995 47 37H51V35H47ZM47 13H59V15H47V13Z" fill="#242F9B"/>
</svg>
